<?xml version="1.0" standalone="no"?>
<!DOCTYPE svg PUBLIC "-//W3C//DTD SVG 20010904//EN"
 "http://www.w3.org/TR/2001/REC-SVG-20010904/DTD/svg10.dtd">
<svg version="1.0" xmlns="http://www.w3.org/2000/svg"
 width="1280.000000pt" height="640.000000pt" viewBox="0 0 1280.000000 640.000000"
 preserveAspectRatio="xMidYMid meet">
<metadata>
Created by potrace 1.15, written by Peter Selinger 2001-2017
</metadata>
<g transform="translate(0.000000,640.000000) scale(0.100000,-0.100000)"
fill="#000000" stroke="none">
<path d="M7800 4395 c0 -8 -7 -81 -16 -162 -16 -146 -18 -152 -108 -397 l-93
-249 -6 54 c-4 30 -7 87 -7 128 0 135 -14 63 -19 -102 l-6 -162 -63 88 c-35
48 -65 87 -68 87 -2 0 26 -45 62 -100 l67 -100 -28 -75 c-15 -41 -30 -73 -34
-70 -4 2 -23 54 -41 115 -35 117 -55 145 -25 35 9 -36 16 -68 14 -70 -2 -2
-40 111 -84 251 -43 140 -82 260 -87 267 -4 6 -8 -19 -8 -58 0 -41 -4 -64 -9
-55 -4 8 -30 90 -56 182 -27 92 -51 166 -53 164 -2 -3 24 -119 57 -258 l61
-254 -8 -202 -7 -203 -47 79 -47 79 15 63 c19 84 13 99 -10 22 l-19 -61 -45
76 c-38 66 -43 79 -33 100 16 35 13 41 -8 14 l-18 -24 -20 54 c-11 30 -56 172
-99 317 -43 144 -80 259 -82 254 -2 -7 91 -405 103 -439 11 -33 -10 0 -115
177 -62 105 -114 190 -116 190 -2 0 35 -74 81 -163 47 -90 85 -169 85 -175 0
-7 -51 -98 -114 -203 l-113 -190 -36 42 -35 43 30 53 c16 29 27 53 24 53 -3 0
-17 -20 -32 -45 -14 -25 -28 -44 -31 -42 -2 3 1 24 6 48 13 56 6 64 -9 10 -6
-23 -13 -41 -15 -41 -2 0 -23 19 -46 43 -45 45 -42 37 11 -30 l33 -42 -17 -43
c-9 -24 -27 -56 -40 -72 l-23 -30 -7 40 c-11 60 -27 117 -31 112 -3 -2 2 -44
11 -92 l15 -89 -36 -53 c-19 -30 -38 -54 -41 -54 -3 0 -3 4 1 10 3 5 0 18 -7
29 -11 18 -8 25 27 62 38 40 33 45 -9 10 -17 -15 -18 -15 -13 4 7 22 61 253
82 350 8 33 41 172 74 309 34 137 60 251 58 253 -2 2 -9 -16 -16 -39 -67 -233
-266 -878 -271 -878 -4 0 -5 129 -4 288 2 158 1 280 -1 272 -2 -8 -14 -132
-25 -275 -11 -143 -23 -277 -26 -297 -6 -41 -25 -53 -57 -37 -20 9 -20 9 -5
-4 17 -13 17 -15 0 -31 -10 -9 -21 -16 -23 -16 -3 0 -16 31 -29 70 l-24 69 17
107 c10 59 16 109 13 111 -2 2 -11 -27 -20 -64 -25 -102 -30 -105 -56 -27 -30
88 -38 68 -11 -24 23 -76 26 -95 11 -72 -7 11 -10 5 -11 -25 -1 -38 -2 -37
-10 14 -5 30 -14 93 -19 140 -5 47 -18 145 -29 216 l-20 130 4 -145 c3 -110 1
-135 -6 -105 -23 92 -50 210 -85 377 -21 98 -40 176 -42 174 -2 -2 16 -122 39
-266 l43 -261 -30 -57 -29 -57 -5 190 c-6 212 -3 225 -30 -133 -9 -107 -13
-127 -36 -162 -36 -55 -42 -43 -9 17 l27 48 -30 -35 -31 -35 -9 25 c-5 14 -19
53 -32 87 l-22 62 46 137 c25 75 43 134 39 130 -3 -3 -27 -56 -53 -117 l-48
-111 -27 71 c-27 70 -27 72 -10 114 27 67 28 75 2 27 l-25 -45 -14 35 c-8 19
-41 108 -73 197 -32 89 -60 161 -62 159 -2 -2 26 -100 62 -219 l66 -215 -33
-67 -34 -66 -11 33 c-7 18 -33 121 -58 228 -42 178 -46 203 -41 285 5 90 5 90
-8 35 -7 -34 -15 -49 -19 -40 -3 8 -4 -1 -1 -21 4 -28 -49 -405 -99 -699 -2
-14 -5 89 -6 229 0 140 -4 251 -8 248 -3 -4 -12 -87 -19 -184 -24 -330 -26
-350 -35 -325 -5 12 -13 22 -19 22 -5 0 -10 12 -10 28 0 25 35 261 95 631 14
90 24 168 23 172 -2 5 -38 -155 -81 -356 -93 -432 -102 -466 -111 -444 -4 10
-2 36 4 59 18 66 6 57 -19 -15 -13 -36 -25 -65 -26 -65 -2 0 -17 22 -33 49
-24 38 -45 109 -95 317 -36 148 -70 287 -76 309 -10 39 -11 39 -7 5 3 -19 25
-154 50 -299 26 -145 44 -266 42 -268 -12 -12 -45 56 -65 132 -18 66 -22 101
-17 143 4 31 4 54 2 51 -5 -4 -26 -133 -42 -244 -16 -121 -27 -185 -30 -182
-2 2 -22 89 -43 193 -45 215 -49 214 -21 -6 10 -85 19 -164 19 -175 0 -11 3
-49 7 -85 l7 -65 -35 45 c-18 25 -42 64 -52 87 -19 43 -61 91 -72 81 -3 -4 -1
-17 6 -30 11 -22 10 -22 -5 -3 -8 11 -14 24 -11 30 2 5 21 46 41 90 43 93 41
93 -18 1 l-44 -68 -27 46 c-23 40 -33 85 -69 317 -23 148 -43 266 -45 261 -1
-5 6 -99 18 -208 11 -109 20 -205 20 -214 0 -8 -26 34 -58 94 l-59 109 18 66
c26 92 22 111 -5 26 l-22 -69 -24 42 c-32 57 -37 46 -7 -15 24 -47 24 -49 7
-103 l-17 -55 -37 80 c-20 44 -51 112 -68 150 -33 73 -60 115 -36 55 8 -19 40
-100 72 -180 l58 -146 -52 -162 -51 -163 -50 42 c-27 22 -51 45 -54 49 -3 5
10 48 30 96 19 49 35 90 34 93 0 3 -20 -33 -43 -81 l-42 -86 -69 61 -70 61 63
-65 c34 -35 62 -70 62 -77 0 -7 -4 -10 -10 -7 -5 3 -7 0 -4 -8 3 -8 -19 -64
-49 -123 l-55 -109 -12 30 c-27 68 -29 71 -29 53 -1 -9 4 -29 10 -45 l10 -28
-27 27 -28 27 13 78 c7 43 14 87 17 98 4 16 3 17 -5 5 -6 -8 -16 -39 -23 -69
-11 -51 -12 -53 -20 -26 -4 16 -10 65 -14 109 -5 63 -3 90 10 121 13 33 13 37
1 21 -8 -11 -16 -25 -16 -30 -1 -6 -5 3 -9 19 -7 27 -8 26 -9 -16 -1 -31 -14
-74 -40 -130 -22 -46 -40 -78 -40 -71 -1 16 50 368 79 546 12 70 19 130 17
132 -3 3 -70 -309 -136 -628 -9 -43 -19 -78 -22 -78 -3 0 -10 15 -16 33 -5 17
-9 24 -7 15 1 -10 -2 -18 -7 -18 -5 0 -10 81 -10 183 l-2 182 -13 -135 c-7
-74 -13 -146 -13 -160 -1 -23 -4 -21 -45 25 -48 54 -50 68 -20 148 18 48 17
59 -1 27 -13 -23 -14 -20 -16 50 l-1 75 -9 -60 c-4 -33 -11 -84 -14 -114 -5
-35 -10 -50 -17 -43 -6 6 0 75 16 199 14 104 26 196 26 203 0 35 -11 -8 -35
-145 -15 -82 -31 -158 -34 -167 -4 -12 -28 43 -65 152 -33 93 -61 168 -63 166
-4 -4 91 -332 107 -373 12 -30 -22 -198 -51 -255 l-22 -43 -9 30 c-15 56 -141
620 -141 635 -1 8 2 35 6 60 5 39 5 41 -5 16 -6 -15 -13 -24 -17 -18 -3 6 -6
-13 -6 -41 -1 -62 -44 -252 -55 -240 -4 4 -20 85 -36 178 -16 94 -30 163 -32
155 -1 -9 8 -101 22 -204 l25 -189 -50 -100 c-28 -54 -52 -97 -55 -95 -2 3
-11 25 -18 49 l-14 44 3 -40 c1 -22 6 -52 9 -66 5 -18 1 -32 -13 -50 -18 -22
-20 -23 -27 -5 -4 11 0 30 10 48 10 16 16 32 13 35 -3 2 -10 -5 -17 -16 -6
-12 -14 -21 -19 -21 -4 0 -54 100 -111 223 -57 122 -107 226 -111 231 -5 6 36
-102 91 -239 55 -137 100 -254 100 -260 0 -6 -7 -21 -16 -34 l-16 -23 -19 29
c-10 15 -19 24 -19 20 0 -4 7 -19 16 -33 16 -24 16 -27 -21 -80 -28 -40 -41
-52 -47 -42 -22 33 -58 109 -49 103 14 -8 15 64 1 85 -11 17 -26 6 -32 -25 -3
-14 -8 -7 -17 25 -11 36 -11 51 -1 75 20 51 60 160 59 165 0 3 -17 -29 -38
-70 -33 -63 -39 -71 -45 -52 -4 12 -8 36 -8 52 -1 45 -18 48 -19 3 -1 -21 -4
-49 -9 -63 -6 -22 -18 -4 -88 140 -45 91 -81 161 -82 156 0 -4 27 -71 61 -147
37 -87 58 -147 54 -159 -3 -10 -28 -46 -54 -79 l-49 -61 -11 31 c-8 24 -8 36
0 46 9 10 9 12 -3 8 -10 -4 -17 1 -21 14 -3 14 -11 19 -25 16 -18 -3 -21 4
-27 61 -4 36 -5 102 -2 147 2 45 2 70 0 55 -7 -45 -23 -32 -24 20 0 26 -3 65
-7 87 -6 31 -12 -3 -26 -150 -10 -104 -20 -192 -22 -194 -4 -4 -30 52 -121
262 -31 70 -58 126 -60 124 -2 -2 26 -80 62 -173 36 -92 65 -180 65 -194 0
-14 -9 -45 -20 -69 -11 -24 -20 -54 -20 -68 0 -15 -4 -22 -11 -17 -7 4 -9 23
-5 52 5 40 4 44 -7 28 -12 -16 -15 -9 -29 63 -9 45 -27 103 -39 129 -22 44
-24 45 -30 22 -7 -27 -6 -32 -34 155 l-14 90 3 -78 c2 -42 1 -76 -1 -74 -2 3
-15 69 -29 148 -14 79 -28 146 -31 149 -3 3 -3 -9 0 -27 13 -65 19 -210 10
-216 -5 -3 -19 46 -32 109 -13 63 -26 113 -28 110 -2 -2 3 -45 12 -96 9 -51
14 -94 12 -96 -1 -2 -23 57 -47 131 -24 74 -45 133 -47 131 -2 -2 22 -92 52
-201 l55 -198 -31 -101 c-17 -56 -42 -119 -55 -141 l-24 -40 5 65 c3 36 10
121 16 188 6 68 8 126 6 128 -2 2 -14 -62 -26 -143 -36 -233 -30 -228 -86 -68
-35 99 -48 153 -48 189 1 28 -1 41 -4 29 -2 -13 -8 -23 -13 -23 -21 0 -17 54
10 144 38 126 37 144 -1 41 -16 -44 -32 -87 -35 -95 -12 -31 -54 113 -55 190
l-2 75 -7 -55 c-4 -30 -7 -46 -8 -36 -1 11 -4 17 -7 14 -3 -3 0 -26 7 -51 8
-31 9 -52 2 -68 -9 -19 -12 -11 -24 52 -7 41 -15 69 -17 63 -2 -7 5 -66 17
-133 15 -88 19 -143 15 -203 -6 -86 -23 -168 -34 -168 -4 0 -24 120 -45 268
-21 147 -41 269 -44 272 -2 3 -2 -22 2 -55 16 -152 45 -486 48 -540 1 -46 -4
-77 -26 -132 l-28 -73 -43 51 c-24 28 -46 65 -49 82 -3 18 -22 163 -41 322
-19 160 -38 312 -41 338 -13 107 -11 28 6 -233 30 -430 28 -391 11 -377 -12 9
-12 6 2 -15 10 -17 17 -47 17 -79 0 -64 -7 -60 -83 54 -65 97 -77 124 -77 180
0 23 -5 49 -10 57 -11 16 -13 -11 -10 -105 l1 -50 -47 45 -48 45 48 -57 c27
-33 46 -65 44 -75 -3 -14 -11 -7 -36 26 -18 24 -32 40 -32 36 0 -5 -12 2 -28
16 -15 13 -10 6 10 -16 51 -55 90 -143 86 -196 l-3 -41 -132 103 -132 104 -55
165 c-30 91 -69 211 -86 268 -18 57 -33 102 -35 100 -2 -2 28 -124 66 -273 38
-148 68 -274 66 -278 -1 -5 -54 67 -116 160 -171 252 -172 250 -11 -22 62
-104 116 -194 119 -200 3 -5 -11 2 -31 17 -20 15 -42 29 -49 30 -8 2 -16 5
-19 8 -3 3 -32 30 -65 60 l-60 55 45 -50 c25 -27 88 -96 140 -152 88 -96 118
-133 106 -133 -3 0 -87 90 -187 200 -100 110 -183 200 -186 200 -2 0 47 -62
108 -137 62 -76 154 -190 204 -253 l92 -115 32 -133 c18 -74 30 -140 27 -148
-3 -7 -1 -16 4 -19 6 -4 10 -11 10 -18 0 -6 -14 2 -31 19 -27 27 -33 43 -43
115 l-11 84 -5 -64 -5 -65 -245 285 c-135 156 -283 328 -329 382 -46 53 -86
97 -88 97 -3 0 24 -37 59 -83 140 -179 555 -724 578 -757 20 -30 21 -32 4 -17
-11 9 -25 17 -31 17 -11 0 -146 143 -377 398 -71 78 -131 142 -133 142 -2 0
30 -44 72 -97 228 -295 285 -374 265 -363 -12 7 -75 43 -139 81 -136 81 -126
72 78 -76 84 -60 161 -121 172 -137 l20 -27 -93 38 c-51 22 -115 49 -143 61
-130 57 -128 47 2 -20 54 -28 87 -48 73 -45 -14 2 2 -8 35 -22 155 -70 200
-98 229 -141 54 -77 24 -73 -145 21 -85 47 -210 116 -279 154 -117 65 -126 71
-143 113 l-18 45 6 -39 6 -38 -88 47 c-48 27 -107 59 -130 72 -83 48 -41 15
96 -76 103 -68 141 -99 146 -118 3 -14 4 -27 2 -30 -3 -2 -44 14 -92 37 -49
22 -89 39 -91 38 -1 -2 42 -28 97 -58 106 -59 100 -51 125 -153 6 -26 4 -28
-16 -25 -16 2 -28 14 -37 38 l-13 35 6 -32 c10 -60 -35 -39 -90 41 -42 61 -60
76 -28 23 11 -17 28 -46 39 -64 10 -17 37 -63 60 -101 23 -38 43 -75 45 -83 2
-8 6 -16 9 -19 4 -3 10 -20 14 -39 l7 -33 -32 18 c-18 11 -56 40 -85 66 -29
26 -54 45 -57 42 -3 -2 -29 21 -59 53 -29 32 -49 52 -45 45 6 -10 66 -209 66
-219 0 -1 -30 0 -67 3 -57 5 -72 10 -92 33 -20 22 -22 23 -19 6 3 -11 66 -99
141 -196 115 -149 138 -184 151 -234 8 -33 14 -61 12 -62 -3 -3 -239 253 -288
311 -10 12 -17 17 -17 11 0 -5 69 -100 154 -210 85 -110 152 -201 150 -203 -1
-2 -56 29 -121 69 -186 112 -182 106 23 -40 132 -95 163 -123 163 -150 0 -12
-16 -7 -146 50 -83 37 -96 47 -154 115 -72 86 -92 92 -31 10 23 -30 41 -59 41
-65 0 -5 3 -11 8 -13 7 -3 71 -89 87 -118 7 -12 6 -13 -6 -4 -8 6 -49 30 -91
53 -77 41 -78 41 -78 18 0 -20 19 -37 98 -88 128 -83 131 -86 37 -44 -44 20
-92 48 -107 63 l-28 26 0 -32 c0 -18 4 -32 8 -32 4 0 34 -32 66 -72 l59 -71
-34 7 c-75 16 -99 18 -99 10 0 -5 38 -20 84 -33 79 -22 86 -27 120 -73 l37
-49 -38 7 c-21 3 -74 28 -118 55 -75 45 -80 47 -83 26 -3 -14 7 -30 30 -49
l33 -28 -34 7 c-22 4 -32 3 -28 -4 4 -6 26 -13 50 -15 30 -4 60 -17 96 -44
l52 -39 -35 -3 c-23 -2 -54 7 -95 27 -33 17 -63 31 -66 31 -3 0 -5 -16 -5 -35
l0 -35 6285 0 c5622 0 6286 2 6291 15 9 23 112 66 171 72 l53 6 0 195 c0 153
-3 193 -12 184 -7 -7 -20 -12 -30 -12 -14 0 -17 5 -13 23 40 170 55 279 54
396 -1 69 -4 116 -6 105 -3 -16 -16 -25 -48 -33 -59 -15 -58 -15 -52 22 l6 32
-16 -35 c-18 -42 -10 -36 -60 -45 l-43 -7 0 95 c0 103 5 127 26 127 17 0 30
25 37 73 4 25 2 35 -5 31 -6 -4 -9 -1 -6 7 4 13 58 39 142 69 55 19 19 20 -50
0 -38 -11 -70 -20 -71 -20 -14 0 9 36 72 114 48 59 75 102 75 117 -1 20 -20 4
-115 -94 l-113 -118 -6 73 c-3 40 -7 161 -8 268 -3 169 -1 200 15 235 13 30
14 35 2 21 -8 -11 -16 -25 -17 -30 0 -6 -4 9 -8 34 -7 45 -7 45 -8 -17 -2 -58
-10 -78 -169 -395 l-168 -333 -6 100 c-4 65 -2 124 7 170 7 39 18 99 24 134
11 59 20 75 132 225 133 177 131 183 -7 22 -49 -58 -93 -105 -96 -105 -4 -1
-3 16 2 37 21 92 100 505 96 508 -2 2 -41 -137 -86 -309 -46 -171 -89 -321
-96 -332 -7 -11 -28 -38 -47 -60 l-35 -39 -13 194 c-7 107 -16 211 -21 230 -6
24 -7 5 -4 -60 4 -77 8 -344 5 -397 0 -7 -4 -13 -9 -13 -5 0 -15 39 -22 88
-14 96 -28 146 -28 102 0 -14 6 -68 13 -120 11 -77 12 -98 1 -108 -10 -11 -13
12 -19 120 -12 253 -11 275 23 353 21 47 43 117 38 121 -2 2 -19 -28 -38 -68
l-33 -73 -7 85 c-4 47 -11 213 -15 370 -9 319 -20 301 -24 -40 -1 -113 -5
-264 -9 -337 l-6 -132 -84 -71 c-46 -39 -85 -69 -87 -68 -3 3 80 566 92 623 4
17 4 28 1 25 -3 -3 -37 -147 -76 -320 -80 -355 -92 -402 -107 -407 -6 -2 -25
30 -43 72 l-32 76 11 166 c14 230 7 229 -21 -1 -12 -98 -12 -99 -27 -70 -31
58 -32 104 -6 156 13 26 22 48 19 48 -2 0 -12 -14 -20 -31 -9 -17 -18 -29 -21
-27 -2 3 -15 143 -28 312 -24 301 -37 404 -30 229 2 -48 6 -182 8 -298 4 -181
2 -206 -10 -185 -18 33 -17 22 1 -30 28 -79 22 -100 -67 -241 -46 -71 -85
-129 -88 -129 -12 0 -49 69 -38 72 14 5 2 88 -17 114 -16 23 -24 16 -36 -28
-8 -31 -8 -30 -4 8 5 40 65 258 126 454 47 153 33 128 -44 -76 -40 -105 -77
-197 -83 -205 -6 -8 -19 -38 -29 -67 l-17 -54 -61 131 c-33 72 -62 129 -64
127 -2 -2 15 -50 37 -106 22 -57 38 -105 36 -107 -2 -2 -17 18 -34 44 -17 26
-48 71 -69 99 l-38 51 12 199 c6 109 14 255 17 324 4 109 4 116 -5 55 -11 -83
-59 -486 -59 -506 -1 -17 -50 37 -50 54 0 7 -9 18 -20 25 -19 11 -19 11 -9 -6
10 -16 1 -37 -57 -135 -38 -64 -71 -116 -74 -116 -3 0 -19 18 -36 41 l-32 41
21 36 20 36 -25 -29 -25 -29 -66 84 c-37 46 -67 90 -67 97 0 7 20 94 45 194
25 99 44 182 42 184 -2 2 -27 -71 -55 -163 -28 -93 -55 -181 -61 -198 -6 -16
-35 -113 -65 -215 -30 -102 -61 -202 -68 -222 l-13 -38 -69 117 -69 117 10 51
c13 63 9 69 -9 14 l-14 -42 -129 221 c-71 122 -131 219 -134 217 -2 -3 1 -11
7 -17 7 -7 12 -20 12 -29 0 -10 4 -19 8 -21 5 -1 57 -99 116 -216 l107 -214
-24 -71 -25 -70 -6 44 c-8 53 -28 131 -32 126 -2 -1 3 -45 11 -97 18 -118 18
-132 2 -154 -11 -15 -17 19 -41 231 -16 136 -31 251 -35 255 -3 4 -1 -118 6
-270 l12 -277 -41 -37 c-70 -62 -70 -59 -63 271 3 157 8 329 11 381 11 181 -6
82 -31 -181 -14 -145 -30 -297 -35 -337 -6 -40 -10 -79 -10 -85 -1 -17 -48
107 -195 510 -71 194 -130 351 -132 349 -3 -3 16 -67 158 -538 59 -195 64
-229 53 -300 -6 -36 -7 -36 -29 -22 -27 18 -51 115 -35 144 14 27 12 34 -5 20
-8 -7 -15 -8 -15 -3 0 4 -29 146 -64 313 -35 168 -69 337 -76 375 -7 39 -17
84 -21 100 -17 57 -3 -51 61 -472 l62 -412 -52 -85 c-28 -47 -55 -88 -61 -91
-17 -11 -10 77 9 99 16 20 16 20 -1 7 -16 -13 -17 -10 -13 45 3 32 3 49 0 37
-3 -13 -10 -23 -15 -23 -5 0 -9 -15 -9 -34 0 -46 -18 -92 -31 -79 -6 6 -4 23
6 49 l16 39 -25 -30 c-32 -37 -41 -29 -21 21 l16 39 -24 -27 c-12 -16 -26 -28
-29 -28 -8 0 11 80 67 286 26 91 44 168 42 170 -2 2 -23 -52 -46 -121 -24 -68
-58 -163 -75 -211 l-33 -86 -39 45 c-22 25 -48 61 -59 80 -19 35 -19 36 8 123
31 103 29 123 -4 35 -27 -74 -33 -75 -14 -1 8 30 13 56 11 57 -2 2 -15 -26
-28 -63 l-25 -67 -22 32 c-22 31 -22 31 -12 257 17 357 12 392 -14 94 -19
-229 -24 -262 -37 -254 -6 4 -6 -1 1 -13 7 -15 4 -78 -11 -229 -11 -115 -22
-211 -24 -213 -15 -17 -24 101 -10 139 8 21 7 22 -6 9 -8 -8 -18 -25 -21 -39
-15 -56 -24 -58 -67 -13 -35 37 -39 46 -30 64 11 20 6 83 -9 107 -15 25 -40 1
-44 -41 -2 -23 -4 8 -5 70 -2 94 9 281 32 543 4 39 3 46 -3 24 -4 -17 -11 -35
-14 -41 -3 -5 -13 -77 -22 -161 -8 -83 -22 -166 -29 -184 -7 -18 -19 -56 -25
-84 -7 -29 -23 -61 -35 -73 -21 -20 -23 -20 -37 -4 -9 10 -23 44 -33 76 -10
32 -20 56 -23 53 -3 -3 0 -19 6 -37 6 -18 11 -37 11 -42 0 -6 -44 33 -99 86
-54 53 -101 97 -105 97 -4 0 40 -51 98 -114 l105 -114 -20 -54 c-18 -50 -46
-82 -109 -128 -25 -18 -26 -18 -27 2 -2 26 -31 70 -42 63 -13 -7 -19 35 -31
235 -27 433 -27 435 -29 117 -1 -223 -4 -298 -13 -295 -15 5 -40 78 -34 101 2
9 0 15 -5 11 -5 -3 -9 -12 -9 -20 0 -8 -4 -13 -9 -9 -5 3 -7 49 -5 103 5 108
-1 113 -11 9 -6 -64 -8 -67 -21 -48 -12 16 -12 26 -4 43 10 21 10 21 -3 5 -14
-16 -15 -16 -31 8 -16 24 -15 27 7 62 13 21 29 48 36 61 21 40 4 23 -29 -28
-18 -27 -35 -50 -39 -50 -3 0 -25 33 -48 73 -58 99 -82 127 -37 42 20 -38 46
-85 57 -103 l20 -34 -58 -83 c-31 -46 -78 -102 -104 -123 l-47 -40 -24 43 -24
43 72 253 c39 139 70 254 68 256 -2 2 -48 -118 -155 -404 -9 -24 -18 -43 -21
-43 -3 0 -13 13 -23 29 -21 35 -17 46 47 155 52 89 61 115 15 43 -18 -26 -33
-46 -35 -44 -2 2 26 97 62 211 36 115 63 211 60 213 -2 2 -7 -6 -11 -19 -4
-13 -43 -120 -87 -238 -44 -118 -84 -224 -88 -234 -6 -17 -11 -13 -34 27 -39
66 -44 59 -7 -9 17 -31 28 -61 25 -66 -4 -5 -33 40 -67 101 -33 61 -62 109
-64 107 -2 -2 23 -58 56 -123 l59 -120 -71 -102 c-87 -124 -83 -131 -67 154 6
110 13 263 17 339 4 98 11 156 24 194 22 65 23 79 3 37 -14 -28 -14 -21 -9 83
3 61 4 112 1 112 -4 0 -6 -7 -6 -15z m-6167 -346 c12 -39 13 -58 4 -82 -9 -27
-11 -29 -18 -11 -8 20 -12 144 -5 144 3 0 11 -23 19 -51z m1581 -139 c33 -239
67 -523 62 -527 -2 -3 0 -18 6 -33 8 -24 5 -36 -16 -72 -26 -43 -28 -42 -40
14 -5 21 -1 30 15 38 11 7 18 14 15 17 -3 3 -12 0 -20 -6 -11 -10 -15 -8 -20
6 -4 14 -46 244 -73 399 -6 39 38 310 48 292 4 -7 14 -65 23 -128z m2226 -110
c22 -124 40 -230 40 -234 0 -4 -7 -6 -15 -2 -12 4 -13 2 -6 -12 6 -11 5 -25
-4 -41 -9 -18 -14 -20 -18 -10 -3 8 -6 1 -6 -15 -1 -15 -17 -59 -37 -97 -36
-68 -37 -69 -52 -47 -14 20 -13 50 12 332 27 303 36 381 42 361 2 -6 22 -111
44 -235z m-3438 93 c3 -29 2 -53 -2 -53 -9 0 -20 61 -20 105 1 47 17 9 22 -52z
m5728 -135 c-11 -95 -26 -230 -32 -300 -7 -71 -14 -128 -17 -128 -3 0 -20 22
-38 49 -21 33 -28 52 -22 62 5 8 8 28 8 44 -1 29 -2 28 -14 -10 -8 -22 -14
-31 -14 -21 -1 11 31 127 69 257 39 131 71 242 71 246 1 4 3 1 6 -9 2 -9 -5
-94 -17 -190z m-6057 152 c8 -37 -3 -121 -14 -115 -12 8 -22 90 -14 124 8 37
20 33 28 -9z m654 -187 c-1 -43 -3 -10 -3 72 0 83 2 118 3 78 2 -40 2 -107 0
-150z m2033 207 c0 -6 27 -67 59 -135 49 -104 61 -138 67 -198 l6 -72 -30 30
c-18 17 -55 83 -87 154 l-56 124 12 54 c7 29 16 53 21 53 4 0 8 -5 8 -10z
m2965 -309 c56 -247 67 -319 26 -169 -13 46 -36 124 -51 173 -17 53 -30 124
-34 175 -3 47 -3 81 -1 75 3 -5 30 -120 60 -254z m-5375 139 c-17 -33 -20 -21
-7 35 11 46 12 47 15 18 2 -18 -2 -42 -8 -53z m-201 -110 c40 -136 42 -194 3
-99 -15 34 -26 49 -35 46 -21 -8 -37 76 -30 152 4 37 9 57 14 50 4 -8 25 -75
48 -149z m5226 -81 c6 -43 3 -52 -31 -104 l-38 -56 -40 48 c-23 26 -56 64 -75
83 l-34 35 25 -35 c13 -19 44 -61 68 -93 49 -65 49 -60 -19 -154 l-37 -52 -50
57 c-85 96 -84 80 -12 227 35 72 81 164 102 205 l39 75 47 -95 c27 -52 51
-116 55 -141z m-3905 51 c-18 -71 -35 -132 -39 -135 -4 -2 -12 16 -18 40 -9
40 -6 52 36 157 57 139 64 118 21 -62z m1276 44 c-3 -7 1 -18 9 -24 7 -6 23
-36 35 -68 12 -31 31 -76 42 -100 32 -74 33 -95 2 -141 -39 -59 -49 -41 -35
59 12 82 9 124 -3 53 -4 -21 -12 -55 -17 -77 l-10 -39 -34 33 c-19 18 -31 38
-28 44 3 6 2 8 -2 3 -5 -4 -17 0 -27 10 -17 15 -16 19 27 101 52 96 40 95 -20
-2 -22 -36 -43 -65 -47 -66 -16 0 -7 38 18 85 19 36 21 45 8 34 -16 -12 -17
-12 -12 1 3 8 16 59 29 114 l24 99 23 -53 c13 -29 21 -59 18 -66z m-2719 24
c-2 -13 -4 -3 -4 22 0 25 2 35 4 23 2 -13 2 -33 0 -45z m8954 -24 c54 -76 60
-88 50 -107 -18 -33 -49 -72 -53 -67 -3 3 -19 53 -36 112 -29 97 -39 148 -28
148 3 0 33 -39 67 -86z m-5707 7 c6 -39 5 -43 -9 -31 -10 8 -15 29 -15 59 1
54 14 39 24 -28z m742 -14 l21 -71 -36 -82 c-34 -79 -36 -81 -44 -53 -6 22 -3
37 11 57 39 56 44 79 8 38 l-34 -40 -10 37 c-9 32 -6 47 21 116 18 44 34 77
37 75 3 -3 14 -38 26 -77z m-3690 -50 l-26 -52 6 50 c3 27 13 67 22 90 l17 40
3 -38 c2 -25 -5 -55 -22 -90z m8981 72 l27 -40 -19 -157 c-10 -86 -21 -163
-24 -169 -4 -8 -32 20 -73 73 l-67 86 62 124 c34 68 63 124 64 124 2 0 15 -18
30 -41z m-8907 -254 l-19 -50 1 170 0 170 19 -120 c19 -117 19 -120 -1 -170z
m267 188 c-2 -2 -12 6 -21 16 -12 14 -16 27 -10 43 6 21 8 20 21 -16 7 -22 12
-41 10 -43z m8258 -39 c14 -60 25 -115 25 -124 0 -14 -105 -176 -121 -185 -4
-3 -10 9 -14 26 -5 21 7 88 37 214 23 101 44 182 46 180 2 -1 14 -51 27 -111z
m-7966 -24 c-46 -129 -48 -119 -13 53 8 38 14 71 14 75 1 4 7 -5 15 -19 13
-24 11 -34 -16 -109z m77 94 c-4 -9 -9 -15 -11 -12 -3 3 -3 13 1 22 4 9 9 15
11 12 3 -3 3 -13 -1 -22z m-1736 1 c7 -9 8 -15 2 -15 -5 0 -12 7 -16 15 -3 8
-4 15 -2 15 2 0 9 -7 16 -15z m-88 -58 c26 -22 49 -46 52 -54 3 -8 -26 14 -64
49 -39 34 -70 64 -70 66 0 5 15 -6 82 -61z m755 31 c-3 -8 -6 -5 -6 6 -1 11 2
17 5 13 3 -3 4 -12 1 -19z m1573 -152 c18 -140 20 -170 8 -177 -7 -5 -14 -5
-15 -1 -20 82 -35 122 -45 116 -8 -5 -9 4 -5 32 4 21 12 76 18 122 7 45 13 81
15 80 1 -2 12 -79 24 -172z m1770 -7 c36 -189 34 -197 -19 -91 -31 62 -49 83
-31 38 5 -13 22 -51 38 -83 26 -52 28 -61 17 -92 l-11 -35 -17 60 c-21 72 -31
89 -47 79 -10 -6 -11 16 -6 101 4 60 9 131 12 158 10 83 33 36 64 -135z
m-3720 150 c0 -6 -4 -7 -10 -4 -5 3 -10 11 -10 16 0 6 5 7 10 4 6 -3 10 -11
10 -16z m1074 -74 c-3 -27 -8 -52 -10 -54 -2 -2 -13 4 -25 15 -18 16 -20 26
-14 68 8 66 14 73 37 45 15 -19 17 -34 12 -74z m260 42 c-9 -28 -20 -44 -26
-40 -7 4 -8 1 -4 -6 5 -7 5 -29 1 -49 -5 -26 -9 -32 -15 -22 -21 41 -19 57 16
113 20 32 38 56 40 54 2 -2 -3 -25 -12 -50z m1028 -2 c31 -39 33 -44 30 -109
-2 -37 -6 -66 -8 -63 -8 8 -74 199 -74 215 0 18 3 16 52 -43z m4766 31 c9 -20
2 -37 -62 -137 -40 -63 -78 -113 -85 -111 -7 1 -20 -3 -29 -10 -12 -11 -12 -6
3 22 43 85 147 260 154 260 4 0 13 -11 19 -24z m-4523 -103 c-3 -18 -10 -33
-15 -33 -14 0 -12 39 2 102 l13 53 3 -45 c2 -24 1 -59 -3 -77z m2151 -56 c16
-96 16 -101 -5 -230 -12 -72 -23 -133 -25 -134 -2 -2 -9 30 -15 71 -7 40 -18
82 -26 92 -26 35 -18 101 20 172 38 68 41 100 4 38 -12 -20 -23 -36 -24 -34
-4 5 23 161 31 183 9 22 7 31 40 -158z m-4883 63 c71 -59 77 -67 77 -102 0
-21 -3 -38 -8 -38 -22 0 -87 70 -123 133 -23 40 -49 81 -58 91 -16 20 -16 20
10 0 14 -10 60 -48 102 -84z m1531 66 c-3 -15 -8 -25 -11 -23 -2 3 -1 17 3 31
3 15 8 25 11 23 2 -3 1 -17 -3 -31z m6265 -65 c-7 -50 -17 -91 -22 -91 -5 0
-7 6 -4 14 3 8 11 51 18 95 6 45 13 80 16 78 2 -3 -2 -45 -8 -96z m-5409 -49
c-8 -52 -16 -80 -20 -71 -9 15 4 156 17 192 14 40 16 -29 3 -121z m718 -24
c-6 -16 -14 -30 -18 -33 -13 -8 -91 141 -83 160 5 13 17 5 58 -41 47 -53 51
-61 43 -86z m3807 111 c9 -17 14 -33 11 -36 -4 -4 -36 49 -36 62 0 13 11 2 25
-26z m-6762 -41 c4 -14 9 -34 13 -45 3 -10 -6 2 -20 27 -14 25 -25 54 -26 65
0 19 0 19 14 0 7 -11 16 -32 19 -47z m717 -3 c-6 -49 -8 -53 -9 -20 -1 37 8
89 14 83 2 -2 0 -30 -5 -63z m6436 -56 c-8 -92 -30 -147 -78 -196 -37 -38 -68
-58 -54 -35 7 12 -29 64 -38 55 -11 -11 31 81 90 199 l48 97 19 -27 c15 -22
17 -39 13 -93z m2702 -21 l82 -127 -36 -95 c-20 -53 -40 -93 -45 -90 -5 3 -9
-5 -9 -18 0 -19 -6 -15 -34 25 -21 29 -32 55 -29 67 6 24 -16 92 -28 85 -20
-13 -7 49 18 83 l27 37 -28 -25 -29 -25 7 70 c3 39 6 90 6 115 0 24 4 40 8 35
5 -6 45 -67 90 -137z m-6099 47 c15 -80 -3 -86 -24 -8 -10 37 -20 75 -23 83
-3 10 2 9 16 -5 12 -11 26 -42 31 -70z m5741 -3 c0 -7 -19 -42 -42 -78 l-41
-66 -18 58 c-10 33 -19 61 -19 64 0 3 14 29 31 58 l30 54 29 -39 c16 -21 30
-44 30 -51z m-4844 18 c-11 -45 -14 -49 -15 -23 -1 28 18 88 25 80 2 -1 -3
-27 -10 -57z m-3228 12 c8 -23 7 -29 -4 -29 -9 0 -14 11 -14 29 0 15 2 28 4
28 2 0 8 -13 14 -28z m270 -24 c-5 -10 -12 -18 -17 -18 -18 0 -19 14 -4 44 15
28 17 29 23 11 4 -11 3 -28 -2 -37z m1181 -110 c-14 -76 -22 -87 -47 -65 -10
9 -23 17 -28 17 -5 0 2 -9 15 -19 16 -12 22 -24 18 -35 -6 -15 -11 -14 -42 10
-19 14 -35 31 -35 37 0 5 19 58 42 116 l42 105 24 -52 c21 -48 22 -56 11 -114z
m411 98 c-1 -17 -4 -14 -20 14 -25 45 -25 61 0 31 11 -13 20 -33 20 -45z
m1170 -126 c-18 -22 -34 -40 -38 -40 -3 0 -1 5 6 12 7 7 12 21 12 33 -1 23
-29 77 -30 56 0 -8 -2 -12 -5 -9 -3 3 4 36 16 74 l22 69 24 -78 24 -78 -31
-39z m2276 53 c-13 -37 -34 -95 -47 -128 l-23 -60 -7 35 c-6 27 1 65 29 162
l37 127 17 -33 c17 -33 17 -36 -6 -103z m-4951 49 c-9 -10 -25 42 -19 61 7 19
9 16 15 -18 4 -22 5 -42 4 -43z m6198 20 c-2 -36 -20 -99 -27 -91 -1 2 -1 37
2 77 3 53 7 71 15 63 6 -6 11 -28 10 -49z m-7663 -9 c0 -33 -3 -44 -11 -36 -9
9 -3 83 7 83 2 0 4 -21 4 -47z m5470 19 c0 -9 11 -62 25 -117 13 -54 23 -100
22 -101 -1 -1 -23 22 -49 53 l-48 54 27 37 27 37 -32 -29 c-17 -16 -35 -26
-39 -22 -10 10 47 117 58 110 5 -3 9 -13 9 -22z m-3355 -57 c-11 -70 -25 -64
-25 11 1 64 2 68 16 49 11 -14 14 -32 9 -60z m1855 46 c0 -9 -7 -26 -16 -37
-15 -18 -15 -18 -10 6 3 14 6 33 6 43 0 10 5 15 10 12 6 -3 10 -14 10 -24z
m4761 -95 l63 -124 -24 -77 c-13 -42 -27 -78 -31 -81 -4 -2 -11 10 -14 28 -4
18 -11 39 -16 48 -18 31 -69 185 -69 206 0 25 20 124 25 124 1 0 31 -56 66
-124z m-5687 98 c5 -14 4 -15 -9 -4 -17 14 -19 20 -6 20 5 0 12 -7 15 -16z
m2013 -27 l31 -42 -25 -43 c-27 -46 -38 -50 -63 -27 -15 14 -16 22 -5 74 11
52 21 81 29 81 1 0 16 -19 33 -43z m2163 15 c0 -10 -9 -23 -20 -30 -23 -14
-23 -14 -9 26 11 33 29 35 29 4z m62 6 c-7 -7 -12 -8 -12 -2 0 14 12 26 19 19
2 -3 -1 -11 -7 -17z m-7513 -38 c0 -9 -6 -4 -14 10 -19 33 -19 49 0 24 8 -10
14 -26 14 -34z m943 -17 l-5 -28 -13 30 c-7 17 -13 39 -13 50 0 19 0 19 18 -2
12 -15 17 -31 13 -50z m2868 36 c0 -20 -15 -26 -24 -10 -8 13 4 42 15 35 5 -3
9 -14 9 -25z m-2653 -1 c-3 -8 -6 -5 -6 6 -1 11 2 17 5 13 3 -3 4 -12 1 -19z
m391 -42 c-50 -65 -52 -65 -18 3 23 45 34 60 40 51 6 -9 -2 -28 -22 -54z m685
-52 l25 -82 -40 -43 -39 -44 5 64 c3 35 6 98 6 140 1 87 7 82 43 -35z m4512
75 c9 -17 15 -33 13 -35 -3 -2 -12 12 -21 31 -21 43 -13 47 8 4z m-4275 -16
c0 -26 -16 -12 -18 15 -1 21 0 23 8 12 5 -8 10 -21 10 -27z m939 -35 c35 -59
18 -45 -24 20 -20 31 -28 48 -18 37 11 -11 30 -37 42 -57z m3415 47 c-9 -14
-18 -25 -21 -25 -5 0 5 18 20 38 17 22 18 13 1 -13z m2680 -70 c47 -66 65 -99
59 -109 -11 -20 -144 -156 -152 -156 -12 0 -28 84 -24 126 3 29 0 44 -11 53
-13 11 -16 11 -16 1 0 -8 -3 -11 -6 -7 -5 5 74 187 81 187 1 0 32 -43 69 -95z
m-5757 63 c-3 -8 -6 -5 -6 6 -1 11 2 17 5 13 3 -3 4 -12 1 -19z m2780 -29
c-12 -28 -23 -46 -25 -40 -3 9 35 91 42 91 3 0 -5 -23 -17 -51z m568 -19 c-17
-16 -18 -8 -8 41 l7 34 8 -30 c5 -21 3 -34 -7 -45z m405 42 c0 -15 -2 -15 -10
-2 -13 20 -13 33 0 25 6 -3 10 -14 10 -23z m-5829 -49 c10 -24 17 -43 15 -43
-2 0 -15 18 -30 40 -16 24 -23 46 -19 57 5 13 8 14 11 2 3 -7 13 -33 23 -56z
m837 2 l1 -20 -9 20 c-5 11 -8 31 -8 45 l0 25 8 -25 c4 -14 8 -34 8 -45z
m4958 38 c3 -16 7 -33 9 -40 7 -22 -67 -213 -86 -224 -15 -8 -18 -6 -13 8 5
15 3 15 -11 -2 -13 -16 -17 -17 -24 -6 -10 15 -8 26 26 141 22 74 64 147 85
149 4 1 10 -11 14 -26z m-3251 -90 c-8 -47 -19 -41 -31 16 -8 39 -7 53 5 71
15 23 16 23 24 -16 4 -21 5 -54 2 -71z m287 55 c-2 -27 -8 -45 -13 -42 -12 7
-11 36 1 70 14 36 17 28 12 -28z m1533 -77 c14 -57 25 -104 23 -106 -2 -1 -13
-7 -25 -13 -20 -11 -21 -9 -27 46 -23 231 -16 249 29 73z m-5658 82 c-3 -10
-5 -4 -5 12 0 17 2 24 5 18 2 -7 2 -21 0 -30z m2446 24 c3 -7 -1 -21 -9 -32
-13 -17 -14 -17 -14 13 0 32 14 43 23 19z m134 -36 c-8 -9 -12 -10 -15 -2 -2
6 -8 9 -13 5 -12 -7 -11 3 2 27 10 20 11 20 24 2 10 -13 11 -21 2 -32z m833 9
c0 -20 -17 -46 -25 -38 -4 3 -3 23 1 43 5 26 9 33 15 23 5 -7 9 -20 9 -28z
m4199 -54 l51 -94 -19 -53 c-38 -109 -52 -137 -68 -135 -19 3 -21 12 -30 124
-4 52 -12 89 -20 98 -13 13 -12 24 6 84 12 39 23 70 25 70 3 0 27 -42 55 -94z
m1290 23 c17 -91 4 -108 -33 -45 -26 44 -26 46 -9 80 9 20 20 36 23 36 4 0 13
-32 19 -71z m-9347 24 c7 -25 -5 -54 -18 -45 -6 4 -14 24 -18 45 -7 36 -6 38
12 28 11 -6 22 -18 24 -28z m2632 21 c3 -8 2 -12 -4 -9 -6 3 -10 10 -10 16 0
14 7 11 14 -7z m4136 -47 c-19 -19 -22 -19 -16 -4 3 11 9 31 13 45 l6 26 10
-22 c9 -19 6 -27 -13 -45z m-3355 -17 c35 -69 37 -93 9 -104 -15 -6 -26 14
-38 69 -9 47 -16 105 -11 105 3 0 20 -31 40 -70z m345 51 c0 -10 2 -34 5 -52
4 -28 4 -30 -3 -9 -18 53 -22 80 -12 80 5 0 10 -8 10 -19z m2108 -12 c-3 -8
-7 -3 -11 10 -4 17 -3 21 5 13 5 -5 8 -16 6 -23z m574 -66 c8 -17 4 -30 -23
-69 -32 -47 -33 -48 -40 -24 -4 14 -7 63 -8 109 l-1 84 31 -39 c17 -22 36 -49
41 -61z m787 33 c15 -60 9 -71 -8 -14 -23 81 -24 83 -13 73 5 -5 15 -32 21
-59z m373 20 c-6 -48 -12 -46 -12 5 0 22 4 38 8 35 4 -3 6 -21 4 -40z m-4480
-108 c-12 -49 -35 -88 -53 -88 -34 0 -55 151 -29 200 l12 23 41 -41 41 -41
-12 -53z m2568 124 c0 -5 -9 -17 -21 -28 -21 -19 -21 -19 -8 9 12 26 29 37 29
19z m1607 -24 c-3 -7 -5 -2 -5 12 0 14 2 19 5 13 2 -7 2 -19 0 -25z m2956
-141 l5 -169 -23 29 c-55 67 -64 75 -35 30 28 -42 31 -53 21 -73 -6 -13 -14
-24 -19 -24 -13 0 -42 56 -42 83 0 25 -22 52 -33 40 -4 -3 -7 -1 -7 6 0 7 15
26 33 42 17 17 24 27 14 23 -15 -6 -16 -3 -7 21 13 33 83 166 86 162 1 -1 4
-78 7 -170z m-7734 123 c0 -10 -3 -8 -9 5 -12 27 -12 43 0 25 5 -8 9 -22 9
-30z m1461 19 c0 -6 -4 -7 -10 -4 -5 3 -10 11 -10 16 0 6 5 7 10 4 6 -3 10
-11 10 -16z m480 -40 c-31 -42 -36 -29 -8 20 14 24 24 35 26 26 2 -8 -6 -29
-18 -46z m1022 -17 c44 -60 54 -80 45 -91 -8 -9 -12 -10 -15 -2 -2 6 -8 11
-13 11 -10 0 -119 79 -119 86 0 9 34 74 39 74 3 -1 32 -35 63 -78z m1712 18
c4 -28 9 -57 12 -64 4 -9 -6 -21 -25 -30 -16 -9 -31 -16 -33 -16 -2 0 -1 33 0
72 5 108 34 131 46 38z m-5757 28 c-3 -8 -6 -5 -6 6 -1 11 2 17 5 13 3 -3 4
-12 1 -19z m1253 1 c0 -6 -4 -7 -10 -4 -5 3 -10 11 -10 16 0 6 5 7 10 4 6 -3
10 -11 10 -16z m206 -23 c-8 -20 -20 -36 -26 -36 -6 0 -2 17 11 40 27 48 36
46 15 -4z m2345 21 c-10 -9 -11 -8 -5 6 3 10 9 15 12 12 3 -3 0 -11 -7 -18z
m-5340 -4 c13 -16 12 -17 -3 -4 -10 7 -18 15 -18 17 0 8 8 3 21 -13z m1769
-20 c-11 -17 -11 -17 -6 0 3 10 6 24 7 30 0 9 2 9 5 0 3 -7 0 -20 -6 -30z m74
-83 l-8 -35 -6 45 -7 45 -3 -40 -2 -40 -9 40 c-4 22 -8 56 -8 75 l-1 35 26
-45 c21 -36 24 -51 18 -80z m1545 0 c1 -24 0 -24 -36 12 l-37 37 18 38 19 38
18 -50 c9 -27 18 -61 18 -75z m236 110 c-3 -5 -12 -10 -18 -10 -7 0 -6 4 3 10
19 12 23 12 15 0z m2239 -66 l58 -77 -16 -61 c-10 -34 -21 -68 -25 -75 -17
-27 -31 2 -32 67 -1 37 -3 56 -6 42 -2 -14 -6 -40 -9 -58 l-5 -32 -23 27 c-26
32 -44 75 -49 118 -3 27 -4 28 -13 10 -10 -23 -34 -31 -34 -12 0 14 80 127 90
127 4 0 33 -34 64 -76z m1651 20 c-14 -31 -25 -59 -25 -62 0 -4 -7 4 -16 17
-16 22 -15 24 22 62 21 21 39 39 41 39 1 0 -8 -25 -22 -56z m-7380 -2 c-9 -9
-25 11 -25 31 1 21 1 21 15 -3 7 -14 12 -27 10 -28z m5269 -14 c-21 -40 -39
-23 -30 27 7 36 8 36 26 20 18 -16 18 -20 4 -47z m1509 39 c-15 -26 -86 -117
-90 -117 -3 0 -2 12 1 27 9 33 75 115 87 107 5 -3 6 -11 2 -17z m1765 -50 l20
-68 -21 14 c-18 11 -23 26 -25 73 -2 32 -1 56 1 54 3 -3 14 -36 25 -73z m732
-20 c0 -34 -3 -46 -12 -41 -8 5 -9 2 -5 -10 4 -11 -3 -31 -18 -54 -22 -32 -25
-34 -25 -14 0 30 -18 64 -31 57 -17 -11 -9 15 27 87 36 71 36 72 50 47 7 -13
13 -46 14 -72z m-5071 41 c1 -5 -3 -8 -9 -8 -5 0 -10 12 -9 28 0 24 1 25 9 7
5 -11 9 -23 9 -27z m1761 -167 c0 -5 -7 -12 -16 -15 -11 -4 -18 1 -22 16 -3
13 -20 50 -38 84 -31 58 -38 81 -35 114 1 15 111 -182 111 -199z m2968 104
c29 -95 31 -108 19 -137 -13 -32 -14 -31 -36 82 -12 63 -25 125 -28 138 -3 12
-1 22 3 22 5 0 24 -47 42 -105z m-6423 21 c-9 -32 -19 -56 -21 -54 -2 3 1 33
7 67 7 39 15 59 21 53 6 -6 3 -31 -7 -66z m8092 -127 c-35 -79 -76 -166 -90
-194 l-26 -50 5 108 c3 72 2 107 -5 107 -6 0 -11 10 -11 22 0 15 31 54 93 116
89 90 92 92 95 64 2 -18 -20 -80 -61 -173z m-7875 154 c24 -25 25 -30 13 -47
-14 -18 -15 -18 -25 8 -5 15 -15 36 -20 47 -15 28 2 23 32 -8z m2458 -5 c0
-25 -3 -29 -10 -18 -7 11 -10 4 -10 -27 0 -40 -14 -56 -33 -37 -5 5 42 114 50
114 2 0 3 -15 3 -32z m3228 -263 c-12 -12 -58 42 -58 68 0 27 -19 57 -35 57
-21 0 -20 4 22 94 l38 79 21 -144 c14 -94 19 -147 12 -154z m-6508 253 c0 -30
-1 -31 -16 -16 -9 9 -14 24 -11 32 11 27 27 17 27 -16z m5171 -27 c-4 -29 -14
-58 -21 -64 -10 -10 -11 -6 -6 18 26 113 42 141 27 46z m3211 -13 c-9 -9 -12
-1 -11 33 l1 44 11 -33 c7 -24 7 -36 -1 -44z m-5812 42 c0 -11 -6 -19 -12 -17
-7 1 -12 -6 -11 -17 1 -11 -2 -15 -8 -9 -6 6 -6 20 2 36 14 32 29 35 29 7z
m486 5 c4 -9 -6 -28 -25 -47 l-30 -31 -10 24 c-7 19 -4 29 12 47 24 26 45 29
53 7z m2761 -121 c-17 -33 -32 -53 -37 -48 -5 5 -11 49 -13 98 l-4 88 41 -41
40 -41 -27 -56z m3543 -124 l-5 -255 -35 -11 -35 -12 -5 47 -5 46 -8 -51 c-6
-45 -11 -52 -33 -57 -24 -4 -25 -3 -20 27 3 17 13 80 22 140 15 103 26 138
115 365 5 13 11 22 12 20 1 -2 0 -119 -3 -259z m-8438 218 c-9 -9 -12 -7 -12
12 0 19 3 21 12 12 9 -9 9 -15 0 -24z m1897 -54 c1 -30 -4 -44 -15 -48 -14 -5
-16 -1 -10 31 3 21 6 54 7 73 1 32 2 33 9 10 4 -14 8 -44 9 -66z m708 7 c18
-15 33 -30 33 -34 0 -23 -35 -14 -94 23 -61 39 -64 43 -54 66 l11 24 36 -27
c20 -15 51 -38 68 -52z m1371 -8 c-24 -46 -26 -47 -46 -34 -10 6 -5 21 20 65
30 52 33 55 41 34 6 -17 2 -34 -15 -65z m1684 -8 l-8 -50 -7 45 c-5 25 -11 56
-14 70 l-5 25 20 -20 c18 -17 20 -27 14 -70z m805 53 c-3 -7 -5 -2 -5 12 0 14
2 19 5 13 2 -7 2 -19 0 -25z m-5607 -68 c-26 -63 -37 -2 -13 75 6 17 8 15 16
-12 7 -23 6 -41 -3 -63z m250 18 c0 -16 -2 -28 -4 -28 -2 0 -11 -2 -18 -5 -11
-5 -15 7 -16 52 l-2 58 20 -25 c11 -14 20 -37 20 -52z m3601 29 c-13 -13 -15
1 -4 30 7 17 8 17 11 -1 2 -10 -1 -23 -7 -29z m256 21 c-3 -8 -6 -5 -6 6 -1
11 2 17 5 13 3 -3 4 -12 1 -19z m2183 -123 c0 -3 -18 -14 -40 -25 -22 -11 -40
-17 -39 -13 3 20 -2 34 -11 28 -13 -8 -13 4 0 41 5 16 14 49 20 73 l12 45 29
-73 c16 -40 29 -74 29 -76z m-9941 91 c15 -16 21 -31 17 -42 -5 -14 -11 -12
-32 17 -14 19 -30 42 -35 52 -9 16 -8 17 8 9 10 -6 29 -22 42 -36z m5205 29
c-4 -8 -8 -15 -10 -15 -2 0 -4 7 -4 15 0 8 4 15 10 15 5 0 7 -7 4 -15z m1780
-29 c-11 -23 -20 -32 -25 -24 -7 10 30 72 38 64 2 -2 -4 -20 -13 -40z m-4987
12 c-3 -8 -6 -5 -6 6 -1 11 2 17 5 13 3 -3 4 -12 1 -19z m1145 5 c22 -26 42
-151 27 -169 -22 -27 -38 -17 -28 18 12 43 11 47 -6 24 -15 -19 -15 -19 -15 3
0 26 -25 55 -40 46 -5 -3 0 17 12 45 23 55 28 58 50 33z m247 -9 c-17 -21 -31
-17 -17 5 7 11 16 17 20 14 5 -2 4 -11 -3 -19z m5356 -101 c-7 -48 -11 -50
-41 -25 -37 31 -36 67 5 114 l36 42 3 -44 c2 -25 1 -64 -3 -87z m820 -20 c-9
-76 -18 -146 -21 -156 -9 -30 -29 -13 -27 24 l2 34 -12 -28 c-16 -40 -32 -27
-28 25 1 31 -3 50 -14 62 -15 15 -15 18 6 48 55 79 102 138 106 134 3 -2 -3
-67 -12 -143z m-9791 72 c8 -11 17 -40 20 -63 11 -72 -14 -45 -46 49 -28 86
-24 89 26 14z m5058 13 c-9 -9 -12 -4 -11 23 0 32 1 33 11 11 8 -17 8 -26 0
-34z m2608 15 c-11 -17 -11 -17 -6 0 3 10 6 24 7 30 0 9 2 9 5 0 3 -7 0 -20
-6 -30z m1408 -33 c1 -23 0 -23 -8 -5 -5 11 -8 34 -8 50 0 29 0 29 8 5 4 -14
8 -36 8 -50z m-6598 0 c-10 -25 -14 -27 -31 -17 -25 16 -24 23 9 53 23 22 28
24 30 9 2 -9 -2 -29 -8 -45z m1993 45 c-3 -9 -8 -14 -10 -11 -3 3 -2 9 2 15 9
16 15 13 8 -4z m2907 6 c0 -14 -51 -52 -61 -45 -15 9 -10 19 19 36 31 20 42
22 42 9z m1390 -41 c0 -10 -59 -64 -65 -59 -2 3 -2 28 2 56 l6 52 28 -22 c16
-11 29 -24 29 -27z m-5100 -46 c0 -11 -7 -29 -15 -40 -12 -16 -14 -16 -15 -3
0 9 -11 32 -24 51 l-24 36 21 21 21 21 18 -32 c9 -18 17 -42 18 -54z m1466 39
c-18 -33 -21 -17 -5 24 6 15 13 23 16 16 2 -6 -3 -24 -11 -40z m465 -25 l24
-16 -26 -27 c-39 -40 -65 -28 -74 33 -4 26 -12 53 -18 61 -11 14 42 -15 94
-51z m2139 48 c0 -8 -4 -18 -10 -21 -5 -3 -10 3 -10 14 0 12 5 21 10 21 6 0
10 -6 10 -14z m-4278 -59 c6 -13 6 -23 -3 -33 -20 -24 -37 -16 -43 24 -4 20
-10 46 -13 57 -5 18 -3 17 22 -5 15 -14 31 -33 37 -43z m1231 32 c-8 -8 -13
-7 -18 2 -6 8 -4 10 5 4 10 -6 12 -4 6 11 -6 15 -5 17 5 7 9 -10 10 -16 2 -24z
m1612 -23 c10 -78 -4 -91 -31 -31 -21 46 -22 51 -7 67 25 28 31 22 38 -36z
m3235 -31 c0 -33 -3 -71 -7 -84 -5 -20 -9 -14 -25 35 -17 56 -17 61 -1 97 21
49 33 32 33 -48z m-6582 55 c-7 -10 -14 -17 -17 -15 -4 4 18 35 25 35 2 0 -1
-9 -8 -20z m5021 6 c7 -8 11 -34 9 -58 -3 -46 -20 -58 -51 -36 -16 12 -16 16
1 61 18 51 23 55 41 33z m2547 -94 c-15 -15 -16 -12 -15 43 l1 60 15 -43 c14
-40 14 -45 -1 -60z m-5184 82 c4 -3 -3 -33 -14 -66 l-21 -61 -18 34 c-24 44
-23 46 6 74 24 25 37 30 47 19z m683 -61 c6 -39 5 -43 -23 -57 -34 -18 -33
-25 -11 73 13 59 22 54 34 -16z m1035 41 c0 -8 -2 -14 -4 -14 -2 0 -12 -3 -21
-6 -14 -6 -14 -3 -4 19 12 27 29 27 29 1z m594 -13 c-4 -17 -9 -30 -11 -27 -3
2 -2 19 2 36 9 41 17 33 9 -9z m652 13 c-4 -9 -9 -15 -11 -12 -3 3 -3 13 1 22
4 9 9 15 11 12 3 -3 3 -13 -1 -22z m-5128 -2 c2 -7 -3 -12 -12 -12 -9 0 -16 7
-16 16 0 17 22 14 28 -4z m943 -59 c-8 -14 -11 -11 -16 21 -6 28 -4 41 6 47
11 6 15 1 17 -21 2 -16 -1 -37 -7 -47z m2839 57 c0 -18 -20 -20 -21 -3 -1 10
-5 2 -9 -17 l-7 -35 -2 31 c0 17 2 33 5 37 8 7 34 -3 34 -13z m291 -11 c-5
-13 -10 -18 -10 -11 -1 7 -5 10 -11 7 -15 -10 -12 2 6 20 21 21 27 14 15 -16z
m139 4 c-1 -24 -2 -26 -11 -10 -5 9 -7 22 -4 27 10 17 15 11 15 -17z m329 -52
c-13 -67 -23 -73 -21 -14 2 59 13 96 24 85 6 -6 5 -31 -3 -71z m1055 7 c-11
-11 -31 -29 -46 -40 l-28 -19 0 24 c0 13 17 43 37 67 l37 43 9 -27 c7 -21 5
-32 -9 -48z m1154 17 c44 -61 45 -89 5 -108 -19 -9 -26 -8 -34 4 -7 11 -9 11
-9 -3 0 -10 -4 -18 -10 -18 -6 0 -10 26 -10 59 0 55 9 121 16 121 1 0 21 -25
42 -55z m-4839 23 c0 -13 -4 -32 -8 -43 -7 -17 -9 -14 -13 15 -6 37 -3 50 13
50 5 0 9 -10 8 -22z m2524 -3 c-3 -9 -8 -14 -10 -11 -3 3 -2 9 2 15 9 16 15
13 8 -4z m1491 -105 c10 -63 -9 -39 -21 29 -6 29 -8 63 -5 75 6 22 8 13 26
-104z m239 71 c-8 -10 -35 28 -28 39 5 8 11 4 19 -12 7 -12 11 -25 9 -27z
m1481 -46 c-15 -42 -28 -74 -30 -72 -2 2 9 40 24 86 14 45 28 77 30 71 2 -6
-8 -44 -24 -85z m-3437 33 c7 -16 10 -28 5 -28 -12 0 -42 67 -34 75 4 3 8 0
11 -7 2 -7 10 -25 18 -40z m-2719 -8 c25 -45 22 -74 -10 -91 -11 -6 -21 -9
-23 -7 -3 3 -8 99 -6 126 2 22 16 12 39 -28z m236 13 c-9 -37 -24 -53 -24 -26
0 28 10 53 21 53 5 0 6 -12 3 -27z m4275 -23 c0 -14 -6 -36 -13 -49 l-13 -24
-5 28 c-7 34 12 101 24 83 4 -7 8 -24 7 -38z m-6283 8 c-18 -26 -22 -17 -5 14
6 11 13 17 16 15 3 -3 -2 -16 -11 -29z m2784 2 c-18 -11 -22 -7 -14 14 5 13
10 14 18 6 8 -8 7 -13 -4 -20z m1675 1 c8 -17 11 -32 6 -36 -5 -3 -11 5 -13
17 -2 15 -9 22 -21 22 -14 -2 -15 1 -6 12 15 19 16 18 34 -15z m1010 -4 c17
-33 17 -34 -6 -69 l-24 -36 -17 45 c-15 41 -16 47 -1 69 20 32 26 30 48 -9z
m1214 -15 c1 -7 -3 -10 -9 -7 -5 3 -10 18 -9 33 0 24 1 25 9 7 5 -11 9 -26 9
-33z m575 -11 c-27 -41 -44 -45 -44 -11 0 20 63 76 68 60 2 -5 -9 -27 -24 -49z
m-4687 17 c-3 -8 -6 -5 -6 6 -1 11 2 17 5 13 3 -3 4 -12 1 -19z m2497 -30 c-3
-11 -14 -38 -24 -60 l-17 -39 -7 41 c-4 27 -10 39 -18 34 -8 -5 -9 -2 -5 10 4
10 10 29 13 42 6 23 7 23 36 8 23 -12 28 -20 22 -36z m1391 39 c17 -13 16 -17
-20 -76 -46 -74 -57 -84 -39 -33 7 20 13 49 14 64 0 31 9 58 19 58 4 0 15 -6
26 -13z m-6190 -16 c3 -5 1 -12 -4 -15 -5 -3 -11 1 -15 9 -6 16 9 21 19 6z
m2544 -41 c0 -9 -4 -8 -9 5 -5 11 -9 27 -9 35 0 9 4 8 9 -5 5 -11 9 -27 9 -35z
m75 2 c-1 -7 -2 -23 -2 -37 -2 -22 -5 -24 -21 -16 -10 6 -22 23 -25 38 -4 16
-10 37 -13 47 -5 19 -5 19 28 0 19 -11 34 -25 33 -32z m3166 15 c-1 -7 -7 -25
-14 -42 l-13 -30 -6 35 c-10 58 -6 70 15 59 10 -5 18 -15 18 -22z m-9535 -50
c124 -82 124 -85 10 -32 -112 53 -110 51 -120 84 -8 28 -15 31 110 -52z m5705
58 c0 -8 -4 -15 -10 -15 -5 0 -10 7 -10 15 0 8 5 15 10 15 6 0 10 -7 10 -15z
m3664 -30 c-5 -30 -9 -34 -16 -21 -5 9 -14 13 -21 9 -6 -3 -1 8 12 26 28 39
35 35 25 -14z m1636 4 c0 -9 -7 -22 -15 -29 -21 -18 -31 13 -16 48 10 21 14
23 22 11 5 -7 9 -21 9 -30z m-4890 27 c0 -3 -4 -8 -10 -11 -5 -3 -10 -1 -10 4
0 6 5 11 10 11 6 0 10 -2 10 -4z m1537 -18 c-3 -8 -6 -5 -6 6 -1 11 2 17 5 13
3 -3 4 -12 1 -19z m3488 3 c-3 -6 -11 -11 -17 -11 -6 0 -6 6 2 15 14 17 26 13
15 -4z m-5068 -28 c-3 -10 -5 -4 -5 12 0 17 2 24 5 18 2 -7 2 -21 0 -30z
m5363 -53 l0 -91 -41 -42 c-28 -29 -39 -36 -35 -22 13 54 70 245 73 245 1 0 3
-41 3 -90z m207 24 c-13 -45 -14 -46 -21 -21 -4 18 -1 36 10 52 24 36 28 25
11 -31z m-10990 24 c-3 -8 -6 -5 -6 6 -1 11 2 17 5 13 3 -3 4 -12 1 -19z
m7040 -10 c-3 -7 -5 -2 -5 12 0 14 2 19 5 13 2 -7 2 -19 0 -25z m1431 7 c-3
-3 -9 2 -12 12 -6 14 -5 15 5 6 7 -7 10 -15 7 -18z m-2679 -14 c11 -7 7 -13
-18 -25 l-31 -17 0 36 c0 37 2 38 49 6z m1197 -39 c-15 -15 -16 -14 -16 11 0
15 5 27 10 27 6 0 11 8 11 18 1 9 4 4 6 -12 3 -18 -1 -35 -11 -44z m339 28
l-7 -22 -15 22 c-13 19 -13 24 -2 31 19 12 32 -5 24 -31z m2801 3 c-8 -15 -15
-25 -16 -21 0 12 23 58 27 54 3 -2 -2 -17 -11 -33z m67 -97 c4 -33 -21 -28
-47 10 -24 36 -24 38 -9 68 l16 31 19 -45 c10 -24 20 -53 21 -64z m-10628 -84
c-2 -3 -224 43 -256 53 -9 3 -21 24 -28 48 -7 23 -14 50 -17 59 -3 11 47 -12
150 -70 85 -48 153 -88 151 -90z m9793 153 c13 -27 8 -46 -20 -87 -24 -34 -34
-35 -40 -4 -5 25 28 116 42 116 4 0 12 -11 18 -25z m-3790 -25 c-6 -23 -13
-39 -16 -36 -7 8 8 76 17 76 5 0 4 -18 -1 -40z m2502 31 c0 -6 -4 -13 -10 -16
-5 -3 -10 1 -10 9 0 9 5 16 10 16 6 0 10 -4 10 -9z m440 -26 c-9 -11 -16 -13
-23 -6 -7 7 -6 15 3 26 9 11 16 13 23 6 7 -7 6 -15 -3 -26z m-2873 3 c18 -13
33 -26 33 -29 0 -4 -23 -16 -50 -27 l-50 -21 5 25 c18 88 14 84 62 52z m2743
-25 c0 -7 -4 -13 -10 -13 -5 0 -10 12 -10 28 0 21 2 24 10 12 5 -8 10 -21 10
-27z m-358 -15 c-6 -6 -7 0 -4 19 5 21 7 23 10 9 2 -10 0 -22 -6 -28z m3191
-76 c-11 -46 -22 -72 -31 -72 -7 0 -12 4 -10 8 2 4 14 38 27 75 14 37 26 65
28 64 1 -2 -5 -36 -14 -75z m-12017 40 c6 -4 15 -23 19 -42 4 -19 6 -33 3 -30
-53 65 -63 100 -22 72z m11715 -55 c9 -49 8 -61 -8 -87 -26 -45 -35 -36 -30
28 6 65 18 125 23 119 2 -2 9 -29 15 -60z m-11635 3 c25 -79 26 -90 5 -90 -19
0 -32 23 -50 93 -9 36 -8 38 12 35 15 -2 25 -14 33 -38z m179 -26 c50 -15 95
-31 101 -35 6 -5 13 -6 16 -4 9 10 55 -16 55 -31 0 -19 -7 -18 -34 8 -23 22
-33 12 -11 -10 8 -8 8 -12 1 -12 -6 0 -17 8 -24 18 -8 9 -13 16 -12 13 1 -2
-4 -10 -12 -18 -12 -11 -29 -12 -97 -3 -45 5 -86 10 -89 10 -7 0 -39 85 -39
101 0 4 12 4 28 -1 15 -5 68 -21 117 -36z m-371 -59 c74 -92 76 -95 49 -95
-61 0 -70 8 -98 86 -14 41 -29 82 -32 90 -11 29 7 11 81 -81z m11263 48 c-3
-10 -5 -2 -5 17 0 19 2 27 5 18 2 -10 2 -26 0 -35z m-4397 12 c-7 -8 -17 -12
-23 -8 -6 4 -3 11 8 19 23 17 32 10 15 -11z m63 -6 c-6 -23 -23 -15 -23 11 0
12 5 17 14 14 8 -3 12 -13 9 -25z m5445 -5 c-7 -15 -14 -21 -16 -15 -2 7 2 18
8 26 18 22 21 18 8 -11z m-4328 -24 c0 -13 -1 -13 -10 0 -5 8 -10 22 -10 30 0
13 1 13 10 0 5 -8 10 -22 10 -30z m-1440 0 c0 -4 -12 -13 -27 -18 -16 -5 -37
-13 -48 -17 -12 -5 -6 4 15 22 31 28 60 34 60 13z m-6540 -62 l63 -73 -66 65
c-58 56 -77 80 -63 80 1 0 32 -33 66 -72z m12131 25 c-5 -10 -20 -28 -33 -41
l-25 -22 5 31 c3 19 12 34 26 39 32 13 38 12 27 -7z m-11971 -35 c0 -12 -1
-19 -3 -17 -1 2 -9 12 -16 22 -12 14 -11 17 3 17 10 0 16 -8 16 -22z m11861
-29 c-10 -24 -10 -24 -10 -1 -1 12 -7 22 -13 23 -7 0 -4 4 7 8 24 10 29 2 16
-30z m-11609 -2 c10 -12 18 -25 18 -29 0 -5 -27 -8 -59 -8 -55 0 -62 3 -95 36
l-37 37 78 -7 c64 -6 81 -11 95 -29z m6411 -7 c-3 -11 -10 -23 -16 -27 -7 -4
-8 0 -4 11 4 10 7 24 7 32 0 9 4 13 9 10 5 -3 7 -15 4 -26z m-293 11 c0 -5 -7
-11 -15 -15 -15 -5 -20 5 -8 17 9 10 23 9 23 -2z m-6659 -27 c23 -4 29 -15 53
-96 15 -49 25 -92 24 -94 -3 -3 -109 118 -162 185 l-20 24 40 -7 c21 -4 51 -9
65 -12z m12323 -115 c-21 -49 -42 -89 -47 -89 -6 0 -7 32 -4 78 6 73 8 79 44
112 38 35 38 35 41 11 2 -13 -13 -64 -34 -112z m-5704 117 c0 -3 -4 -8 -10
-11 -5 -3 -10 -1 -10 4 0 6 5 11 10 11 6 0 10 -2 10 -4z m5495 -75 l-26 -26
10 27 c5 15 16 36 23 48 l13 21 3 -22 c2 -14 -6 -32 -23 -48z m-11992 53 c41
-6 50 -13 97 -71 l52 -65 34 -165 c19 -91 33 -167 31 -169 -1 -2 -45 47 -97
109 -92 108 -96 116 -141 239 -29 82 -42 128 -34 128 7 0 33 -3 58 -6z m6534
-10 c6 -17 -33 -64 -54 -64 -19 0 -16 24 8 54 23 30 37 33 46 10z m-6409 -32
c20 -31 1 -27 -22 5 -12 16 -14 24 -6 21 7 -2 20 -14 28 -26z m6919 -9 c-3
-10 -5 -4 -5 12 0 17 2 24 5 18 2 -7 2 -21 0 -30z m-6849 -11 c20 -30 11 -28
-19 4 -13 15 -18 25 -10 22 8 -2 21 -14 29 -26z m7023 5 c-10 -9 -11 -8 -5 6
3 10 9 15 12 12 3 -3 0 -11 -7 -18z m-6793 -58 c62 -51 78 -79 45 -79 -15 0
-15 -2 -4 -9 15 -10 25 -41 13 -41 -19 1 -84 72 -112 123 -40 72 -26 74 58 6z
m37 17 c17 -13 27 -27 24 -30 -3 -3 -21 8 -40 24 -41 35 -27 40 16 6z m-243
-50 c10 -19 8 -18 -16 3 -14 14 -26 29 -26 34 0 13 29 -12 42 -37z m11884 -44
c-12 -11 -15 5 -8 44 l7 39 3 -39 c2 -21 1 -41 -2 -44z m-1976 52 c0 -8 -19
-13 -24 -6 -3 5 1 9 9 9 8 0 15 -2 15 -3z m1034 -10 c9 -24 7 -31 -9 -31 -9 0
-15 10 -15 24 0 26 15 31 24 7z m-1004 -46 c0 -6 -7 -5 -15 2 -8 7 -15 17 -15
22 0 6 7 5 15 -2 8 -7 15 -17 15 -22z m2258 -35 l-47 -46 10 39 c9 33 16 42
42 50 18 5 34 8 37 6 2 -1 -17 -24 -42 -49z m-2308 -13 c-19 -12 -35 3 -26 26
6 17 8 17 24 0 15 -15 15 -18 2 -26z m-9825 -138 c25 -104 27 -147 5 -113 -9
15 -80 260 -80 276 0 6 11 -3 24 -20 17 -20 33 -67 51 -143z m316 76 l21 -42
-22 15 c-14 9 -24 26 -24 42 -1 15 0 27 1 27 1 0 12 -19 24 -42z m11479 -62
c-17 -45 -22 -24 -8 35 11 46 13 50 16 23 2 -16 -2 -43 -8 -58z m327 -84 c-26
-102 -46 -162 -54 -162 -16 0 -9 39 26 148 25 76 25 88 -3 83 -8 -2 10 25 57
87 5 7 11 11 13 9 2 -1 -16 -76 -39 -165z m-86 127 c-9 -22 -10 -22 -10 -3 -1
11 2 24 6 27 12 12 14 0 4 -24z m-126 -158 c-34 -35 -35 -35 -35 -11 1 45 21
115 43 147 l22 33 3 -67 c3 -65 2 -68 -33 -102z m-475 104 c0 -5 -5 -3 -10 5
-5 8 -10 20 -10 25 0 6 5 3 10 -5 5 -8 10 -19 10 -25z m-909 -18 c-10 -9 -11
-8 -5 6 3 10 9 15 12 12 3 -3 0 -11 -7 -18z m622 -17 c-9 -16 -18 -28 -20 -27
-6 7 22 65 29 61 5 -3 1 -18 -9 -34z m-10804 -4 c10 -12 9 -14 -9 -9 -11 3
-25 14 -31 25 -9 17 -8 18 9 9 10 -5 24 -17 31 -25z m-477 -78 c84 -112 93
-136 13 -33 -21 28 -47 58 -57 68 -16 16 -24 37 -14 37 2 0 28 -33 58 -72z
m298 -35 c24 -65 24 -62 0 -56 -26 7 -28 10 -51 90 l-18 66 24 -23 c14 -13 34
-47 45 -77z m180 78 c0 -18 -18 -21 -30 -6 -10 13 -9 15 9 15 11 0 21 -4 21
-9z m11385 -61 c-4 -12 -9 -19 -12 -17 -3 3 -2 15 2 27 4 12 9 19 12 17 3 -3
2 -15 -2 -27z m-12074 -80 c56 -31 60 -38 12 -19 -63 24 -7 -7 74 -41 87 -36
87 -36 99 -82 l11 -46 -47 29 c-26 16 -53 36 -60 44 -7 8 -18 15 -24 15 -7 0
-38 29 -70 65 -31 36 -55 65 -53 65 2 0 28 -13 58 -30z m529 -57 c0 -20 -24
-11 -28 10 -2 12 1 15 12 11 9 -3 16 -13 16 -21z m-200 -165 c14 -18 17 -29 9
-33 -15 -10 -48 28 -65 78 l-14 42 25 -30 c14 -16 34 -42 45 -57z m-245 -36
c18 -13 17 -13 -15 -7 -56 12 -73 21 -110 60 l-35 38 70 -38 c39 -21 79 -45
90 -53z m11719 -27 c3 -8 1 -15 -4 -15 -6 0 -10 7 -10 15 0 8 2 15 4 15 2 0 6
-7 10 -15z m-11644 -55 c3 0 11 -10 19 -21 13 -21 12 -22 -24 -16 -23 4 -49
18 -67 36 l-30 31 48 -15 c27 -8 51 -15 54 -15z m47 -96 c-3 -3 -12 -4 -19 -1
-8 3 -5 6 6 6 11 1 17 -2 13 -5z"/>
<path d="M4474 3259 c-3 -6 1 -18 10 -27 15 -15 16 -14 16 11 0 27 -13 36 -26
16z"/>
<path d="M644 2681 c21 -23 26 -26 26 -11 0 5 -10 15 -22 21 -23 12 -23 12 -4
-10z"/>
<path d="M5301 4314 c0 -11 3 -14 6 -6 3 7 2 16 -1 19 -3 4 -6 -2 -5 -13z"/>
<path d="M4841 4194 c0 -11 3 -14 6 -6 3 7 2 16 -1 19 -3 4 -6 -2 -5 -13z"/>
<path d="M7121 4194 c0 -11 3 -14 6 -6 3 7 2 16 -1 19 -3 4 -6 -2 -5 -13z"/>
<path d="M5511 3684 c0 -11 3 -14 6 -6 3 7 2 16 -1 19 -3 4 -6 -2 -5 -13z"/>
<path d="M12730 1511 l-65 -26 64 -3 c35 -2 65 -1 68 2 2 2 3 15 1 28 l-3 24
-65 -25z"/>
</g>
</svg>
