<?xml version="1.0" encoding="iso-8859-1"?>
<!-- Generator: Adobe Illustrator 18.0.0, SVG Export Plug-In . SVG Version: 6.00 Build 0)  -->
<!DOCTYPE svg PUBLIC "-//W3C//DTD SVG 1.1//EN" "http://www.w3.org/Graphics/SVG/1.1/DTD/svg11.dtd">
<svg version="1.1" id="Capa_1" xmlns="http://www.w3.org/2000/svg" xmlns:xlink="http://www.w3.org/1999/xlink" x="0px" y="0px"
	 viewBox="0 0 97.825 97.825" style="enable-background:new 0 0 97.825 97.825;" xml:space="preserve">
<g>
	<path d="M97.825,23.303c0.002-1.231-1.031-2.261-2.261-2.26c-4.392,0.002-8.399,0.962-12.808,0.975
		c-1.101,0.004-2.201,0.007-3.3,0.011c-0.438-0.466-1.304-0.548-1.648,0.006c-4.795,0.023-9.584,0.088-14.373,0.359
		c-6.688,0.378-13.262,1.127-19.979,1.143c-5.37,0.015-10.831-0.462-16.184,0.111c-0.186-2.336-0.544-4.65-0.991-6.958
		c-0.484-2.479-0.28-4.742-1.814-6.845c-0.004-0.003-0.007-0.007-0.009-0.011c0.198-0.838-0.271-1.821-1.178-2.04
		C22.252,7.546,21.394,7.873,20.377,8c-0.185,0.023-0.376,0.042-0.561,0.062c0.209-1.959-0.088-3.592-2.736-4.665
		c-1.61-0.652-3.699-0.332-5.376-0.232C9.468,3.297,7.22,3.23,4.985,3.363C4.604,2.97,4.007,2.785,3.518,3.143
		C3.281,3.316,3.047,3.488,2.812,3.661C2.8,3.669,2.794,3.679,2.782,3.688c-0.714,0.02-1.369,0.469-1.677,1.293
		c-0.88,2.366-2.431,7.326,1.118,8.302c1.65,0.453,3.976-0.201,5.688-0.216c3.25-0.026,6.369,0.398,9.6,0.558
		c1.024,0.05,1.725-0.856,1.789-1.791c0.004-0.05,0.011-0.098,0.014-0.147c0.854,0.055,1.736,0.059,2.559-0.092
		c0.069,0.475,0.166,0.94,0.096,1.454c-0.107,0.827-0.149,1.682-0.035,2.509c0.308,2.275,0.62,4.533,0.81,6.806
		c-0.022-0.011-0.046-0.02-0.068-0.031c0.036,1.008,0.122,2.006,0.227,3.002c0.004,0.172,0.02,0.344,0.02,0.517
		c0.001,0.257,0.05,0.482,0.115,0.692c0.238,2.015,0.519,4.026,0.652,6.078c0.267,4.076,0.8,8.913,1.963,12.797
		c0.54,1.812,1.651,3.641,1.647,5.566c-0.005,1.362-0.095,2.74,0.128,4.09c0.273,1.66,0.238,4.948,1.491,6.201
		c1.604,1.604,4.366,1.092,6.349,0.865c4.215-0.484,8.467,0.496,12.671,0.779c4.654,0.314,9.569-0.858,14.295-0.895
		c1.086-0.008,2.174-0.005,3.263-0.008c0.361,0.091,0.739,0.091,1.088-0.003c3.113-0.002,6.226,0.003,9.338,0.001
		c4.07-0.002,8.057,0.063,12.089-0.452c-2.169,0.277-0.827,8.14-4.001,8.427c-3.225,0.291-6.641-0.622-9.837-0.913
		c-4.761-0.435-9.609,0.023-14.351,0.474c-9.799,0.929-19.388,2.105-29.249,2.107c-2.967,0-2.967,4.602,0,4.6
		c14.021-0.01,27.856-3.009,41.851-2.699c4.637,0.103,9.395,1.745,14.017,0.628c3.622-0.876,4.28-6.546,5.12-9.421
		c0.621-2.116,1.37-5.521-0.327-7.061c0.208-2.186,0.737-4.33,1.362-6.46c0.965-0.257,1.434-1.351,1.278-2.318
		c-0.033-0.203-0.066-0.407-0.099-0.61c-0.026-0.155-0.079-0.292-0.145-0.419c0.751-2.38,1.484-4.766,1.888-7.196
		C96.475,34.939,97.812,29.164,97.825,23.303z M16.477,7.824c-0.078,0.435-0.169,0.861-0.265,1.286
		c-0.15,0.25-0.227,0.532-0.235,0.816C12.72,9.671,9.535,9.339,6.224,9.312c-0.449-0.036-0.894-0.02-1.335,0.05
		C4.72,9.384,4.552,9.407,4.385,9.429C4.171,9.441,4.002,9.454,3.859,9.466C3.906,8.708,4.214,6.68,4.311,6.6
		c0.11-0.091,0.194-0.208,0.266-0.335c2.799,0.244,5.668,0.248,8.462,0.145C14.224,6.366,16.799,5.974,16.477,7.824z M28.829,37.253
		c-0.078-0.569-0.156-1.127-0.244-1.653c-0.46-2.815-0.86-5.816-1.168-8.739c2.499,0.357,5.02,0.594,7.552,0.746
		c0.123,2.936,0.374,5.847,0.685,8.748C33.37,36.387,31.132,36.574,28.829,37.253z M30.905,46.511
		c-0.963-1.955-1.415-4.45-1.756-6.871c2.339-0.325,4.582-0.327,6.848-0.251c0.311,2.541,0.665,5.076,1.025,7.608
		c-1.927,0.059-3.842,0.195-5.738,0.443C31.181,47.133,31.062,46.825,30.905,46.511z M32.666,57.865
		c-0.181-1.073-0.409-2.139-0.617-3.208c-0.312-1.603-0.225-3.052-0.294-4.49c1.908,0.188,3.832,0.241,5.755,0.271
		c0.335,2.334,0.665,4.671,0.966,7.015C36.624,57.629,34.225,58.087,32.666,57.865z M37.286,27.723
		c3.691,0.143,7.397,0.105,11.097-0.032c-0.153,2.379,0.488,4.713,0.585,7.124c0.021,0.479,0.027,0.954,0.039,1.43
		c-2.643,0.033-5.287,0.07-7.933,0.11c-0.842,0.013-1.661,0.007-2.474,0C38.208,33.47,37.796,30.587,37.286,27.723z M39.677,44.269
		c-0.229-1.586-0.443-3.175-0.654-4.765c0.676,0.025,1.357,0.048,2.052,0.059c2.669,0.04,5.337,0.077,8.007,0.11
		c0.032,2.005,0.086,4.005,0.276,6.023c0.044,0.48,0.067,1.027,0.079,1.613c-3.1-0.159-6.219-0.323-9.322-0.345
		C39.96,46.067,39.807,45.17,39.677,44.269z M42.016,57.62c-0.358-2.383-0.814-4.754-1.264-7.129
		c0.211,0.004,0.423,0.007,0.634,0.013c2.698,0.07,5.394,0.214,8.09,0.358c0.045,2.478,0.217,5.12,1.03,7.129
		C47.674,58.318,44.84,57.956,42.016,57.62z M50.419,27.607c3.778-0.177,7.54-0.444,11.252-0.737c0.126-0.01,0.25-0.016,0.374-0.025
		c-0.005,0.093-0.015,0.184-0.014,0.281c0.003,0.053,0.021,0.1,0.032,0.149c-0.063,2.949,0.014,5.905,0.159,8.862
		c-1.003,0.004-2.003,0.009-3.005,0.013c-2.433,0.012-4.864,0.037-7.296,0.063C51.568,33.322,50.997,30.564,50.419,27.607z
		 M52.266,40.958c-0.008-0.426-0.028-0.838-0.046-1.253c2.331,0.025,4.663,0.049,6.998,0.06c1.072,0.005,2.142,0.01,3.215,0.015
		c0.176,2.602,0.394,5.204,0.617,7.805c-1.702,0.019-3.403,0.031-5.104,0.023c-1.682-0.008-3.381-0.063-5.086-0.136
		C52.573,45.298,52.306,43.097,52.266,40.958z M54.481,57.574c-0.099-0.258-0.197-0.516-0.295-0.774
		c-0.056-0.217-0.178-0.379-0.328-0.5c-0.359-1.633-0.454-4.01-0.553-5.244c1.545,0.073,3.095,0.136,4.641,0.171
		c1.808,0.041,3.613,0.05,5.417,0.048c0.169,1.986,0.333,3.971,0.473,5.952C60.712,57.246,57.593,57.316,54.481,57.574z
		 M74.208,57.074c0.001,0.032,0.011,0.059,0.012,0.09c-1.162,0.034-2.322,0.062-3.471,0.062c-0.97,0-1.938-0.004-2.907-0.007
		c-0.043-1.99-0.194-3.981-0.383-5.97c2.306-0.027,4.608-0.066,6.914-0.103C74.205,53.157,74.125,55.149,74.208,57.074z
		 M74.782,47.381c-2.572,0.043-5.144,0.099-7.713,0.145c-0.175-1.494-0.354-2.986-0.526-4.471c-0.128-1.079-0.225-2.167-0.314-3.258
		c3.238,0.015,6.477,0.03,9.712,0.045C75.539,42.272,75.116,44.819,74.782,47.381z M76.433,36.073
		c-3.495,0.016-6.99,0.032-10.483,0.048c-0.236-3.178-0.509-6.355-1.185-9.444c4.129-0.209,8.27-0.214,12.405-0.199
		C76.874,29.67,76.752,32.879,76.433,36.073z M86.768,56.835c-2.868-0.044-5.782,0.074-8.694,0.193
		c0.336-1.971,0.544-3.952,0.709-5.938c3.098-0.029,6.193-0.024,9.292,0.062C87.517,53.015,87.027,54.896,86.768,56.835z
		 M90.861,41.131c-0.361,2.155-0.976,4.239-1.628,6.309c-3.389-0.116-6.778-0.144-10.168-0.115c0.165-2.364,0.338-4.728,0.651-7.084
		c0.017-0.115,0.023-0.232,0.038-0.348c3.847,0.07,7.912,0.078,11.415-1.175c0.049-0.017,0.083-0.049,0.129-0.07
		C91.148,39.478,91,40.307,90.861,41.131z M91.78,36.013c-0.127,0.001-0.255,0.005-0.383,0.01c-0.07-0.036-0.142-0.073-0.228-0.098
		c-3.238-0.943-7.29-0.392-11.018-0.055c0.225-3.118,0.262-6.266,0.018-9.379c0.288,0.002,0.577,0.003,0.865,0.004
		c4.179,0.013,8.147-0.647,12.189-0.86C93.016,29.094,92.411,32.568,91.78,36.013z"/>
	<path d="M35.878,78.449c-1.148,0.22-2.264,0.741-3.089,1.521c-1.186,0.211-2.249,0.889-3.172,2.236
		c-1.426,2.085-1.819,4.763-0.745,7.083c1.836,3.956,7.256,4.778,10.975,3.329c1.909-0.744,3.396-2.157,3.931-4.169
		c0.61-2.293-0.882-4.691-1.949-6.623C40.574,79.557,38.52,77.943,35.878,78.449z M38.074,89.18
		c-1.729,0.544-3.98,0.298-5.305-1.007c-0.835-0.821-0.598-2.073-0.284-3.053c0.586-1.828,2.58-1.855,4.122-2.42
		c0.609-0.223,0.862-0.766,0.781-1.268c1.119,0.817,1.753,2.518,2.218,3.7C40.38,87.09,40.579,88.392,38.074,89.18z"/>
	<path d="M83.622,80.008c-1.527,0.059-3.324,0.076-4.91,0.521c-5.26,0.462-5.345,7.845-3.227,11.516
		c2.207,3.825,7.191,3.283,10.404,1.24c3.498-2.223,5.089-6.611,3.153-10.461C87.953,80.659,85.949,79.919,83.622,80.008z
		 M84.28,89.709c-1.393,1.057-3.739,2.03-5.192,0.609c-1.844-1.805-1.044-5.093,0.353-7.101c2.166-0.454,5.794-0.381,6.355,0.978
		C86.665,86.303,86.033,88.377,84.28,89.709z"/>
	<path d="M79.691,87.022c0,1.77,2.612,2.049,3.006,0.403c0.11-0.256,0.11-0.55,0-0.806C82.303,84.973,79.691,85.252,79.691,87.022z"
		/>
	<path d="M35.351,84.224c-1.965,0-1.965,3.047,0,3.047C37.315,87.271,37.315,84.224,35.351,84.224z"/>
</g>
<g>
</g>
<g>
</g>
<g>
</g>
<g>
</g>
<g>
</g>
<g>
</g>
<g>
</g>
<g>
</g>
<g>
</g>
<g>
</g>
<g>
</g>
<g>
</g>
<g>
</g>
<g>
</g>
<g>
</g>
</svg>
